<svg width="50" height="50" viewBox="0 0 50 50" fill="none" xmlns="http://www.w3.org/2000/svg">
<g filter="url(#filter0_d_5_15)">
<path d="M42.9371 19.4686V22.0644H11.7874V7.78742H24.7665V5.19161H10.4895C10.1453 5.19161 9.81517 5.32836 9.57176 5.57176C9.32836 5.81517 9.19161 6.14529 9.19161 6.48952V22.0644H6.59581V3.89371C6.59581 3.54949 6.73255 3.21936 6.97595 2.97595C7.21936 2.73255 7.54949 2.59581 7.89371 2.59581H27.3623V0H7.89371C6.86103 0 5.87065 0.410229 5.14044 1.14044C4.41023 1.87065 4 2.86103 4 3.89371L4 29.8518C4 30.196 4.13674 30.5261 4.38015 30.7695C4.62355 31.0129 4.95368 31.1497 5.2979 31.1497H16.7844L15.8628 37.6392H14.3832C14.039 37.6392 13.7089 37.7759 13.4655 38.0193C13.2221 38.2628 13.0853 38.5929 13.0853 38.9371H10.4895V41.5329H39.0434V38.9371H36.4476C36.4476 38.5929 36.3108 38.2628 36.0674 38.0193C35.824 37.7759 35.4939 37.6392 35.1497 37.6392H33.6831L32.7615 31.1497H44.235C44.5792 31.1497 44.9094 31.0129 45.1528 30.7695C45.3962 30.5261 45.5329 30.196 45.5329 29.8518V19.4686H42.9371ZM18.4716 37.6392L19.3931 31.1497H30.1268L31.0483 37.6392H18.4716ZM42.9371 28.5539H6.59581V24.6602H42.9371V28.5539Z" fill="white"/>
<path d="M31.9958 11.6811L30.3474 13.3295L32.1775 15.1595L33.8518 13.5371C34.2577 13.7769 34.6943 13.9603 35.1497 14.0823V16.8728H37.7455V14.0952C38.2009 13.9733 38.6375 13.7899 39.0434 13.5501L40.6917 15.1985L42.5218 13.3684L40.8994 11.6811C41.1392 11.2753 41.3226 10.8386 41.4445 10.3832H44.235V7.78743H41.4575C41.3356 7.33205 41.1522 6.89541 40.9124 6.48953L42.5607 4.84119L40.7177 2.97221L39.0434 4.63352C38.6375 4.39373 38.2009 4.21034 37.7455 4.08841V1.29791H35.1497V4.07543C34.6943 4.19736 34.2577 4.38075 33.8518 4.62055L32.1775 2.97221L30.3345 4.81523L31.9958 6.48953C31.756 6.89541 31.5726 7.33205 31.4507 7.78743H28.6602V10.3832H31.4377C31.5637 10.8393 31.7515 11.276 31.9958 11.6811ZM36.4476 6.48953C36.961 6.48953 37.4629 6.64177 37.8897 6.927C38.3166 7.21223 38.6493 7.61764 38.8458 8.09196C39.0423 8.56628 39.0937 9.08821 38.9935 9.59175C38.8934 10.0953 38.6461 10.5578 38.2831 10.9208C37.9201 11.2839 37.4575 11.5311 36.954 11.6313C36.4505 11.7314 35.9285 11.68 35.4542 11.4835C34.9799 11.2871 34.5745 10.9544 34.2893 10.5275C34.004 10.1006 33.8518 9.59874 33.8518 9.08533C33.8518 8.39688 34.1253 7.73663 34.6121 7.24982C35.0989 6.76301 35.7591 6.48953 36.4476 6.48953V6.48953Z" fill="white"/>
</g>
<defs>
<filter id="filter0_d_5_15" x="0" y="0" width="49.5329" height="49.5329" filterUnits="userSpaceOnUse" color-interpolation-filters="sRGB">
<feFlood flood-opacity="0" result="BackgroundImageFix"/>
<feColorMatrix in="SourceAlpha" type="matrix" values="0 0 0 0 0 0 0 0 0 0 0 0 0 0 0 0 0 0 127 0" result="hardAlpha"/>
<feOffset dy="4"/>
<feGaussianBlur stdDeviation="2"/>
<feComposite in2="hardAlpha" operator="out"/>
<feColorMatrix type="matrix" values="0 0 0 0 0 0 0 0 0 0 0 0 0 0 0 0 0 0 0.25 0"/>
<feBlend mode="normal" in2="BackgroundImageFix" result="effect1_dropShadow_5_15"/>
<feBlend mode="normal" in="SourceGraphic" in2="effect1_dropShadow_5_15" result="shape"/>
</filter>
</defs>
</svg>
