<svg width="50" height="50" viewBox="0 0 50 50" fill="none" xmlns="http://www.w3.org/2000/svg">
<g filter="url(#filter0_d_5_20)">
<path d="M21.7998 29.5848C20.7535 29.4691 19.7436 29.2326 18.7843 28.8894C18.8166 28.1899 18.8334 27.4604 18.8334 26.6997L18.8335 26.4612C18.8336 26.2213 18.8337 25.9668 18.8327 25.7003C19.7551 26.1385 20.7522 26.4447 21.7998 26.5946V19.2831C21.7998 16.8255 23.7921 14.8332 26.2498 14.8332H33.5613C32.8413 9.80131 28.514 5.93327 23.2831 5.93327C21.5458 5.93327 19.9082 6.35993 18.4693 7.11419C18.2221 6.11809 17.8445 5.20884 17.3224 4.36798C19.1166 3.47119 21.1409 2.96663 23.2831 2.96663C30.1547 2.96663 35.8136 8.1583 36.5514 14.8332H41.083C43.5405 14.8332 45.5329 16.8255 45.5329 19.2831V34.1163C45.5329 36.5739 43.5405 38.5663 41.083 38.5663H26.2498C23.7921 38.5663 21.7998 36.5739 21.7998 34.1163V29.5848ZM36.5514 17.7998C35.8676 23.9877 30.9543 28.901 24.7665 29.5848V34.1163C24.7665 34.9354 25.4306 35.5996 26.2498 35.5996H41.083C41.902 35.5996 42.5663 34.9354 42.5663 34.1163V19.2831C42.5663 18.4639 41.902 17.7998 41.083 17.7998H36.5514ZM33.5613 17.7998H26.2498C25.4306 17.7998 24.7665 18.4639 24.7665 19.2831V26.5946C29.3139 25.9441 32.9108 22.3472 33.5613 17.7998Z" fill="white"/>
<path d="M15.2583 19.4643C14.947 18.3202 14.4422 17.1712 13.5772 16.2923C14.9755 14.961 15.8666 12.8511 15.8666 10.3832C15.8666 8.31447 15.4476 6.89529 14.6904 5.75943C14.3278 5.21555 13.9182 4.78352 13.5369 4.41486C13.3351 4.2198 13.1778 4.07479 13.0304 3.93892C12.8487 3.77137 12.682 3.61769 12.4655 3.4011C12.0202 2.95581 11.9728 2.59972 11.9728 2.41039C11.9728 2.29576 11.9922 2.20267 12.0085 2.14577C12.014 2.12646 12.0187 2.11293 12.0212 2.10602C12.2959 1.51257 12.1495 0.806451 11.6566 0.371305C11.1524 -0.0738007 10.4118 -0.123952 9.85214 0.249138L9.84692 0.252609L9.83849 0.258305L9.81212 0.276224L9.72371 0.337633C9.64973 0.389668 9.54646 0.463804 9.42055 0.558054C9.16937 0.74605 8.82441 1.01681 8.4402 1.35439C7.69471 2.00942 6.72955 2.97812 6.04292 4.13573C5.46938 5.02459 4.97131 6.12955 4.61437 7.19768C4.25908 8.26081 4.00001 9.41705 4.00001 10.3832C4.00001 12.8511 4.89109 14.961 6.28939 16.2923C5.42432 17.1712 4.9196 18.3202 4.60828 19.4643C3.99962 21.7014 3.99984 24.459 4.00001 26.5939V26.6997C4.00001 32.8057 5.14335 36.4327 6.43638 38.5876C7.08465 39.6681 7.76223 40.3638 8.32732 40.8034C8.60832 41.0218 8.85698 41.1737 9.05382 41.2766C9.15207 41.3282 9.23707 41.3674 9.30634 41.3964C9.30634 41.3964 9.68272 41.5329 9.93328 41.5329C10.1838 41.5329 10.5602 41.3964 10.5602 41.3964C10.6295 41.3674 10.7145 41.3282 10.8128 41.2766C11.0096 41.1737 11.2582 41.0218 11.5393 40.8034C12.1043 40.3638 12.7819 39.6681 13.4302 38.5876C14.7232 36.4327 15.8666 32.8057 15.8666 26.6997L15.8666 26.5939C15.8667 24.459 15.867 21.7014 15.2583 19.4643V19.4643ZM8.41202 18.3648C8.74413 18.0312 9.19322 17.7998 9.93328 17.7998C10.6734 17.7998 11.1225 18.0312 11.4545 18.3648C11.8289 18.741 12.1532 19.3517 12.3957 20.2432C12.8894 22.0577 12.8999 24.4371 12.8999 26.6997C12.8999 32.4603 11.8183 35.5083 10.8863 37.0616C10.5311 37.6534 10.1931 38.0367 9.93328 38.2776C9.67346 38.0367 9.33544 37.6534 8.98025 37.0616C8.04831 35.5083 6.96664 32.4603 6.96664 26.6997C6.96664 24.4371 6.97714 22.0577 7.47085 20.2432C7.71343 19.3517 8.03772 18.741 8.41202 18.3648ZM9.93328 14.8332C8.79195 14.8332 6.96664 13.5645 6.96664 10.3832C6.96664 9.86917 7.12117 9.05616 7.42804 8.13799C7.72942 7.23613 8.1352 6.35982 8.54807 5.72505C8.56032 5.70621 8.57216 5.68707 8.58355 5.66767C8.84087 5.22962 9.17794 4.80491 9.53877 4.41596C9.74217 4.77955 10.0133 5.14439 10.3677 5.49884C10.5858 5.71689 10.8676 5.9792 11.1081 6.20306C11.253 6.33795 11.383 6.45887 11.475 6.54781C11.7889 6.85127 12.0283 7.11456 12.2219 7.40502C12.5772 7.93792 12.8999 8.74372 12.8999 10.3832C12.8999 13.5645 11.0746 14.8332 9.93328 14.8332V14.8332Z" fill="white"/>
</g>
<defs>
<filter id="filter0_d_5_20" x="0" y="0" width="49.5329" height="49.5329" filterUnits="userSpaceOnUse" color-interpolation-filters="sRGB">
<feFlood flood-opacity="0" result="BackgroundImageFix"/>
<feColorMatrix in="SourceAlpha" type="matrix" values="0 0 0 0 0 0 0 0 0 0 0 0 0 0 0 0 0 0 127 0" result="hardAlpha"/>
<feOffset dy="4"/>
<feGaussianBlur stdDeviation="2"/>
<feComposite in2="hardAlpha" operator="out"/>
<feColorMatrix type="matrix" values="0 0 0 0 0 0 0 0 0 0 0 0 0 0 0 0 0 0 0.25 0"/>
<feBlend mode="normal" in2="BackgroundImageFix" result="effect1_dropShadow_5_20"/>
<feBlend mode="normal" in="SourceGraphic" in2="effect1_dropShadow_5_20" result="shape"/>
</filter>
</defs>
</svg>
