<svg width="28" height="38" viewBox="0 0 28 38" fill="none" xmlns="http://www.w3.org/2000/svg">
<g filter="url(#filter0_d_5_79)">
<path d="M19 20C21.7614 20 24 17.7614 24 15C24 12.2386 21.7614 10 19 10C16.2386 10 14 12.2386 14 15C14 17.7614 16.2386 20 19 20Z" fill="#19BCFE"/>
<path fill-rule="evenodd" clip-rule="evenodd" d="M9 30C11.7614 30 14 27.7614 14 25C14 24.2462 14 22.5795 14 20C11.7538 20 10.0871 20 9 20C6.23858 20 4 22.2386 4 25C4 27.7614 6.23858 30 9 30Z" fill="#09CF83"/>
<path fill-rule="evenodd" clip-rule="evenodd" d="M9 20H14V10C11.5871 10 9.92047 10 9 10C6.23858 10 4 12.2386 4 15C4 17.7614 6.23858 20 9 20Z" fill="#A259FF"/>
<path fill-rule="evenodd" clip-rule="evenodd" d="M9 10H14V0C11.5871 0 9.92047 0 9 0C6.23858 0 4 2.23858 4 5C4 7.76142 6.23858 10 9 10Z" fill="#F24E1E"/>
<path fill-rule="evenodd" clip-rule="evenodd" d="M19 10H14V0H19C21.7614 0 24 2.23858 24 5C24 7.76142 21.7614 10 19 10Z" fill="#FF7262"/>
</g>
<defs>
<filter id="filter0_d_5_79" x="0" y="0" width="28" height="38" filterUnits="userSpaceOnUse" color-interpolation-filters="sRGB">
<feFlood flood-opacity="0" result="BackgroundImageFix"/>
<feColorMatrix in="SourceAlpha" type="matrix" values="0 0 0 0 0 0 0 0 0 0 0 0 0 0 0 0 0 0 127 0" result="hardAlpha"/>
<feOffset dy="4"/>
<feGaussianBlur stdDeviation="2"/>
<feComposite in2="hardAlpha" operator="out"/>
<feColorMatrix type="matrix" values="0 0 0 0 0 0 0 0 0 0 0 0 0 0 0 0 0 0 0.25 0"/>
<feBlend mode="normal" in2="BackgroundImageFix" result="effect1_dropShadow_5_79"/>
<feBlend mode="normal" in="SourceGraphic" in2="effect1_dropShadow_5_79" result="shape"/>
</filter>
</defs>
</svg>
