<svg width="38" height="38" viewBox="0 0 38 38" fill="none" xmlns="http://www.w3.org/2000/svg">
<g clip-path="url(#clip0_5_118)" filter="url(#filter0_d_5_118)">
<path d="M33.4337 13.6622L20.3331 0.566252C20.1537 0.386395 19.9406 0.243699 19.706 0.146336C19.4713 0.0489725 19.2198 -0.00114441 18.9658 -0.00114441C18.7118 -0.00114441 18.4602 0.0489725 18.2256 0.146336C17.991 0.243699 17.7778 0.386395 17.5984 0.566252L14.8834 3.28594L18.3353 6.73313C18.7408 6.59557 19.1767 6.5744 19.5936 6.672C20.0105 6.7696 20.3918 6.98207 20.6941 7.28531C21.3391 7.93031 21.5191 8.8575 21.2462 9.65813L24.5669 12.9834C24.9737 12.8418 25.4123 12.8179 25.8321 12.9146C26.2519 13.0113 26.6358 13.2246 26.9397 13.53C27.8434 14.4281 27.8434 15.8831 26.9397 16.7822C26.7266 16.9957 26.4735 17.1651 26.1949 17.2807C25.9163 17.3962 25.6176 17.4557 25.3159 17.4557C25.0143 17.4557 24.7156 17.3962 24.437 17.2807C24.1584 17.1651 23.9053 16.9957 23.6922 16.7822C23.3722 16.462 23.1534 16.0548 23.0631 15.6112C22.9727 15.1677 23.0148 14.7073 23.1841 14.2875L20.0734 11.1919V19.3509C20.2928 19.4588 20.5028 19.605 20.6837 19.7859C21.5772 20.6897 21.5772 22.1391 20.6837 23.0381C20.2506 23.4695 19.6643 23.7117 19.053 23.7117C18.4417 23.7117 17.8553 23.4695 17.4222 23.0381C17.1542 22.77 16.9566 22.4398 16.847 22.0769C16.7375 21.714 16.7193 21.3296 16.7942 20.958C16.8691 20.5864 17.0347 20.2391 17.2762 19.9469C17.5178 19.6547 17.8278 19.4268 18.1787 19.2834V11.0466C17.8988 10.9277 17.6438 10.7572 17.4269 10.5441C17.1043 10.2223 16.885 9.8116 16.7972 9.36451C16.7093 8.91742 16.7569 8.45428 16.9337 8.03438L13.5447 4.62656L4.56062 13.6059C4.20147 13.9704 4.00015 14.4616 4.00015 14.9733C4.00015 15.485 4.20147 15.9761 4.56062 16.3406L17.6612 29.4366C17.8406 29.6164 18.0538 29.7591 18.2884 29.8565C18.523 29.9538 18.7746 30.004 19.0286 30.004C19.2826 30.004 19.5342 29.9538 19.7688 29.8565C20.0034 29.7591 20.2165 29.6164 20.3959 29.4366L33.4328 16.3997C33.6127 16.2203 33.7554 16.0072 33.8527 15.7725C33.9501 15.5379 34.0002 15.2864 34.0002 15.0323C34.0002 14.7783 33.9501 14.5268 33.8527 14.2921C33.7554 14.0575 33.6127 13.8444 33.4328 13.665L33.4337 13.6622Z" fill="#EF5033"/>
</g>
<defs>
<filter id="filter0_d_5_118" x="0" y="0" width="38" height="38" filterUnits="userSpaceOnUse" color-interpolation-filters="sRGB">
<feFlood flood-opacity="0" result="BackgroundImageFix"/>
<feColorMatrix in="SourceAlpha" type="matrix" values="0 0 0 0 0 0 0 0 0 0 0 0 0 0 0 0 0 0 127 0" result="hardAlpha"/>
<feOffset dy="4"/>
<feGaussianBlur stdDeviation="2"/>
<feComposite in2="hardAlpha" operator="out"/>
<feColorMatrix type="matrix" values="0 0 0 0 0 0 0 0 0 0 0 0 0 0 0 0 0 0 0.25 0"/>
<feBlend mode="normal" in2="BackgroundImageFix" result="effect1_dropShadow_5_118"/>
<feBlend mode="normal" in="SourceGraphic" in2="effect1_dropShadow_5_118" result="shape"/>
</filter>
<clipPath id="clip0_5_118">
<rect width="30" height="30" fill="white" transform="translate(4)"/>
</clipPath>
</defs>
</svg>
