<svg width="38" height="38" viewBox="0 0 38 38" fill="none" xmlns="http://www.w3.org/2000/svg">
<g filter="url(#filter0_d_5_120)">
<path fill-rule="evenodd" clip-rule="evenodd" d="M19 0C10.7125 0 4 6.7125 4 15C4 21.6375 8.29375 27.2438 14.2562 29.2313C15.0062 29.3625 15.2875 28.9125 15.2875 28.5188C15.2875 28.1625 15.2688 26.9812 15.2688 25.725C11.5 26.4187 10.525 24.8063 10.225 23.9625C10.0563 23.5313 9.325 22.2 8.6875 21.8438C8.1625 21.5625 7.4125 20.8688 8.66875 20.85C9.85 20.8313 10.6937 21.9375 10.975 22.3875C12.325 24.6562 14.4812 24.0187 15.3437 23.625C15.475 22.65 15.8688 21.9938 16.3 21.6188C12.9625 21.2438 9.475 19.95 9.475 14.2125C9.475 12.5812 10.0563 11.2313 11.0125 10.1813C10.8625 9.80625 10.3375 8.26875 11.1625 6.20625C11.1625 6.20625 12.4187 5.8125 15.2875 7.74375C16.4875 7.40625 17.7625 7.2375 19.0375 7.2375C20.3125 7.2375 21.5875 7.40625 22.7875 7.74375C25.6562 5.79375 26.9125 6.20625 26.9125 6.20625C27.7375 8.26875 27.2125 9.80625 27.0625 10.1813C28.0188 11.2313 28.6 12.5625 28.6 14.2125C28.6 19.9687 25.0938 21.2438 21.7562 21.6188C22.3 22.0875 22.7688 22.9875 22.7688 24.3937C22.7688 26.4 22.75 28.0125 22.75 28.5188C22.75 28.9125 23.0312 29.3813 23.7812 29.2313C26.759 28.2259 29.3465 26.3121 31.1796 23.7592C33.0127 21.2063 33.9991 18.1429 34 15C34 6.7125 27.2875 0 19 0Z" fill="black"/>
</g>
<defs>
<filter id="filter0_d_5_120" x="0" y="0" width="38" height="38" filterUnits="userSpaceOnUse" color-interpolation-filters="sRGB">
<feFlood flood-opacity="0" result="BackgroundImageFix"/>
<feColorMatrix in="SourceAlpha" type="matrix" values="0 0 0 0 0 0 0 0 0 0 0 0 0 0 0 0 0 0 127 0" result="hardAlpha"/>
<feOffset dy="4"/>
<feGaussianBlur stdDeviation="2"/>
<feComposite in2="hardAlpha" operator="out"/>
<feColorMatrix type="matrix" values="0 0 0 0 0 0 0 0 0 0 0 0 0 0 0 0 0 0 0.25 0"/>
<feBlend mode="normal" in2="BackgroundImageFix" result="effect1_dropShadow_5_120"/>
<feBlend mode="normal" in="SourceGraphic" in2="effect1_dropShadow_5_120" result="shape"/>
</filter>
</defs>
</svg>
