<svg width="38" height="38" viewBox="0 0 38 38" fill="none" xmlns="http://www.w3.org/2000/svg">
<g filter="url(#filter0_d_5_68)">
<path d="M4 0H34V30H4V0Z" fill="#F7DF1E"/>
<path d="M11.8881 25.0702L14.1839 23.6808C14.6268 24.4661 15.0297 25.1305 15.9962 25.1305C16.9225 25.1305 17.5066 24.7681 17.5066 23.3586V13.7729H20.3258V23.3985C20.3258 26.3185 18.6142 27.6476 16.117 27.6476C13.8617 27.6476 12.5526 26.4795 11.8881 25.0699" fill="black"/>
<path d="M21.8571 24.7681L24.1527 23.439C24.757 24.4259 25.5423 25.1508 26.9318 25.1508C28.0999 25.1508 28.8448 24.5668 28.8448 23.7612C28.8448 22.7946 28.0796 22.4522 26.7908 21.8886L26.0861 21.5863C24.0521 20.7205 22.7028 19.6331 22.7028 17.3373C22.7028 15.2229 24.3138 13.6118 26.8311 13.6118C28.6234 13.6118 29.9122 14.2361 30.8385 15.8673L28.6434 17.2769C28.1601 16.411 27.6367 16.0687 26.8312 16.0687C26.0055 16.0687 25.4819 16.5923 25.4819 17.2769C25.4819 18.1227 26.0055 18.4651 27.2137 18.9887L27.9184 19.2908C30.3149 20.3179 31.6641 21.3649 31.6641 23.7209C31.6641 26.2585 29.6705 27.6479 26.9922 27.6479C24.3743 27.6479 22.6827 26.3994 21.8572 24.7681" fill="black"/>
</g>
<defs>
<filter id="filter0_d_5_68" x="0" y="0" width="38" height="38" filterUnits="userSpaceOnUse" color-interpolation-filters="sRGB">
<feFlood flood-opacity="0" result="BackgroundImageFix"/>
<feColorMatrix in="SourceAlpha" type="matrix" values="0 0 0 0 0 0 0 0 0 0 0 0 0 0 0 0 0 0 127 0" result="hardAlpha"/>
<feOffset dy="4"/>
<feGaussianBlur stdDeviation="2"/>
<feComposite in2="hardAlpha" operator="out"/>
<feColorMatrix type="matrix" values="0 0 0 0 0 0 0 0 0 0 0 0 0 0 0 0 0 0 0.25 0"/>
<feBlend mode="normal" in2="BackgroundImageFix" result="effect1_dropShadow_5_68"/>
<feBlend mode="normal" in="SourceGraphic" in2="effect1_dropShadow_5_68" result="shape"/>
</filter>
</defs>
</svg>
