<svg width="42" height="38" viewBox="0 0 42 38" fill="none" xmlns="http://www.w3.org/2000/svg">
<g filter="url(#filter0_d_5_71)">
<path d="M31.7235 9.72356C31.3737 9.60316 31.0112 9.48925 30.638 9.38151C30.6994 9.13118 30.7557 8.88408 30.8057 8.64118C31.6274 4.65276 31.0902 1.43966 29.2557 0.38177C27.4967 -0.632606 24.6199 0.425044 21.7145 2.95351C21.4351 3.19665 21.155 3.45407 20.8749 3.72385C20.6883 3.54536 20.502 3.37286 20.3162 3.20787C17.2713 0.504269 14.2192 -0.635067 12.3865 0.425884C10.6292 1.4432 10.1088 4.46382 10.8484 8.24368C10.9198 8.60877 11.0033 8.98161 11.0977 9.36069C10.6657 9.48331 10.2487 9.61403 9.84972 9.75309C6.27987 10.9977 4 12.9483 4 14.9716C4 17.0613 6.44744 19.1572 10.1657 20.4281C10.4592 20.5284 10.7636 20.6233 11.0774 20.7133C10.9756 21.1233 10.887 21.525 10.8126 21.9169C10.1074 25.6312 10.6581 28.5804 12.4108 29.5913C14.2211 30.6353 17.2594 29.5622 20.2179 26.9761C20.4517 26.7717 20.6864 26.5549 20.9215 26.3277C21.2262 26.6211 21.5304 26.8988 21.8331 27.1593C24.6987 29.6253 27.529 30.6211 29.2801 29.6073C31.0886 28.5604 31.6764 25.3922 30.9133 21.5375C30.855 21.2431 30.7872 20.9424 30.711 20.6363C30.9244 20.5732 31.1339 20.5081 31.3381 20.4404C35.2036 19.1596 37.7186 17.0892 37.7186 14.9716C37.7186 12.941 35.3652 10.9772 31.7235 9.72356V9.72356ZM30.8851 19.0731C30.7007 19.1341 30.5115 19.1931 30.3187 19.2503C29.892 17.8994 29.3161 16.4628 28.6113 14.9786C29.2838 13.5298 29.8375 12.1116 30.2523 10.7694C30.5972 10.8692 30.932 10.9745 31.2546 11.0856C34.3749 12.1597 36.2782 13.7479 36.2782 14.9716C36.2782 16.2751 34.2227 17.9672 30.8851 19.0731V19.0731ZM29.5002 21.8173C29.8376 23.5217 29.8858 25.0628 29.6623 26.2675C29.4615 27.35 29.0576 28.0717 28.5583 28.3607C27.4956 28.9758 25.2232 28.1763 22.7725 26.0674C22.4915 25.8256 22.2085 25.5675 21.9246 25.2943C22.8747 24.2552 23.8243 23.0472 24.751 21.7056C26.3811 21.5609 27.9211 21.3245 29.3177 21.0016C29.3865 21.2791 29.4476 21.5512 29.5002 21.8173ZM15.4954 28.2545C14.4572 28.6211 13.6304 28.6316 13.1305 28.3434C12.0669 27.73 11.6248 25.362 12.2279 22.1855C12.297 21.8218 12.3792 21.4481 12.474 21.0661C13.8553 21.3716 15.384 21.5914 17.0179 21.7238C17.9509 23.0366 18.9279 24.2433 19.9125 25.2999C19.6974 25.5075 19.4831 25.7052 19.27 25.8915C17.9618 27.0351 16.6508 27.8464 15.4954 28.2545V28.2545ZM10.6316 19.0651C8.98743 18.5032 7.62963 17.7728 6.69892 16.9758C5.86262 16.2596 5.44039 15.5486 5.44039 14.9716C5.44039 13.7438 7.2709 12.1777 10.3239 11.1133C10.6943 10.9841 11.0821 10.8624 11.4845 10.7481C11.9064 12.1206 12.4599 13.5556 13.1279 15.0066C12.4513 16.4793 11.8899 17.9371 11.4639 19.3257C11.177 19.2432 10.899 19.1565 10.6316 19.0651V19.0651ZM12.262 7.96705C11.6283 4.72856 12.0492 2.28556 13.1082 1.67253C14.2362 1.01947 16.7307 1.9506 19.3597 4.28503C19.5278 4.43423 19.6965 4.5904 19.8657 4.75197C18.886 5.80392 17.918 7.00153 16.9933 8.30658C15.4075 8.45357 13.8895 8.68968 12.4938 9.00586C12.406 8.65289 12.3283 8.3061 12.262 7.96705V7.96705ZM26.8067 11.5585C26.473 10.9822 26.1305 10.4195 25.7813 9.87223C26.8572 10.0082 27.8879 10.1888 28.8559 10.4097C28.5653 11.3411 28.2031 12.3149 27.7767 13.3132C27.4709 12.7325 27.1474 12.147 26.8067 11.5585ZM20.8754 5.78141C21.5398 6.50122 22.2052 7.30487 22.8596 8.17682C22.2001 8.14567 21.5325 8.12946 20.8593 8.12946C20.1925 8.12946 19.5298 8.14531 18.8744 8.17592C19.5295 7.31207 20.2006 6.5095 20.8754 5.78141ZM14.9061 11.5685C14.5728 12.1464 14.2553 12.7287 13.9543 13.3121C13.5348 12.3173 13.176 11.339 12.8828 10.3944C13.8449 10.1792 14.8708 10.0031 15.9398 9.86971C15.5857 10.4221 15.2403 10.9889 14.9061 11.5684V11.5685ZM15.9706 20.1762C14.8661 20.053 13.8248 19.886 12.863 19.6767C13.1608 18.7153 13.5275 17.7161 13.9559 16.6999C14.2577 17.2829 14.5765 17.8654 14.9118 18.4446H14.9119C15.2534 19.0346 15.6073 19.6126 15.9706 20.1762ZM20.9153 24.2633C20.2325 23.5267 19.5516 22.7119 18.8865 21.8355C19.5321 21.8608 20.1903 21.8737 20.8593 21.8737C21.5466 21.8737 22.226 21.8583 22.8947 21.8285C22.2381 22.7207 21.5752 23.5368 20.9153 24.2633V24.2633ZM27.7905 16.6481C28.2411 17.6753 28.6211 18.6692 28.9227 19.6143C27.9451 19.8373 26.8895 20.0169 25.7774 20.1504C26.1274 19.5957 26.4729 19.0234 26.8124 18.4347C27.1559 17.839 27.4821 17.2425 27.7905 16.6481ZM25.5647 17.715C25.0376 18.629 24.4965 19.5014 23.9472 20.3249C22.9466 20.3964 21.9129 20.4333 20.8593 20.4333C19.81 20.4333 18.7893 20.4007 17.8065 20.3369C17.235 19.5026 16.6821 18.6276 16.1583 17.7229H16.1585C15.6361 16.8207 15.1554 15.9109 14.7198 15.0062C15.1553 14.0993 15.6347 13.1885 16.1541 12.2879L16.154 12.2881C16.6747 11.3851 17.2227 10.5144 17.7889 9.68527C18.7917 9.60946 19.82 9.56991 20.8593 9.56991H20.8593C21.9032 9.56991 22.9328 9.60977 23.9353 9.68623C24.4929 10.5093 25.0372 11.3772 25.56 12.2803C26.0887 13.1935 26.5744 14.0983 27.0136 14.9857C26.5757 15.8883 26.0911 16.8022 25.5647 17.715V17.715ZM28.5362 1.62968C29.6653 2.28082 30.1044 4.90688 29.395 8.35045C29.3497 8.57018 29.2988 8.79399 29.2434 9.0208C27.8445 8.69802 26.3255 8.45783 24.735 8.30862C23.8085 6.98923 22.8484 5.78975 21.8847 4.75131C22.1438 4.50205 22.4025 4.26438 22.6602 4.04009C25.1495 1.87372 27.4761 1.01839 28.5362 1.62968ZM20.8593 11.9606C22.5222 11.9606 23.8703 13.3087 23.8703 14.9716C23.8703 16.6345 22.5222 17.9826 20.8593 17.9826C19.1964 17.9826 17.8484 16.6345 17.8484 14.9716C17.8484 13.3087 19.1964 11.9606 20.8593 11.9606Z" fill="#00D8FF"/>
</g>
<defs>
<filter id="filter0_d_5_71" x="0" y="0" width="41.7186" height="38" filterUnits="userSpaceOnUse" color-interpolation-filters="sRGB">
<feFlood flood-opacity="0" result="BackgroundImageFix"/>
<feColorMatrix in="SourceAlpha" type="matrix" values="0 0 0 0 0 0 0 0 0 0 0 0 0 0 0 0 0 0 127 0" result="hardAlpha"/>
<feOffset dy="4"/>
<feGaussianBlur stdDeviation="2"/>
<feComposite in2="hardAlpha" operator="out"/>
<feColorMatrix type="matrix" values="0 0 0 0 0 0 0 0 0 0 0 0 0 0 0 0 0 0 0.25 0"/>
<feBlend mode="normal" in2="BackgroundImageFix" result="effect1_dropShadow_5_71"/>
<feBlend mode="normal" in="SourceGraphic" in2="effect1_dropShadow_5_71" result="shape"/>
</filter>
</defs>
</svg>
