<svg width="32" height="36" viewBox="0 0 32 36" fill="none" xmlns="http://www.w3.org/2000/svg">
<g filter="url(#filter0_d_5_83)">
<path d="M15.9328 16.7031C15.4518 16.9241 14.9248 17.2121 13.8698 17.7911C13.4698 18.0161 13.0518 18.2411 12.6628 18.4531C12.6358 18.4261 12.6078 18.3921 12.5808 18.3641C10.4938 16.1341 6.63385 14.5591 6.79785 11.5641C6.85885 10.4731 7.23385 7.6091 14.2108 4.1311C19.9528 1.3011 24.5218 2.0851 25.3108 3.8241C26.4448 6.3031 22.8618 10.9161 16.9318 11.5851C16.2755 11.7182 15.5977 11.7021 14.9484 11.5381C14.2992 11.374 13.6951 11.0661 13.1808 10.6371C12.8668 10.2961 12.8198 10.2761 12.7038 10.3441C12.5128 10.4441 12.6358 10.7531 12.7038 10.9301C12.93 11.3396 13.2361 11.6997 13.6038 11.9889C13.9715 12.2782 14.3935 12.4908 14.8448 12.6141C17.1785 13.1185 19.6115 12.8775 21.8008 11.9251C25.3948 10.5341 28.2008 6.6671 27.3788 3.4251C26.5538 0.138099 21.0978 -0.945901 15.9358 0.888099C12.7031 1.97749 9.71638 3.69241 7.14585 5.9351C4.30185 8.5951 3.85185 10.9071 4.03585 11.8751C4.69785 15.3121 9.43585 17.5491 11.3358 19.2061C11.2358 19.2611 11.1518 19.3061 11.0768 19.3491C10.1288 19.8201 6.51485 21.7091 5.61385 23.7071C4.59085 25.9711 5.77785 27.5941 6.56185 27.8121C7.74334 28.0951 8.98371 28.0021 10.1098 27.546C11.2358 27.0899 12.1913 26.2935 12.8428 25.2681C13.3961 24.4178 13.7359 23.4464 13.8332 22.4366C13.9305 21.4268 13.7825 20.4084 13.4018 19.4681C13.6265 19.2889 13.866 19.1294 14.1178 18.9911C14.6018 18.7051 15.0628 18.4231 15.4718 18.2051C16.8722 17.5492 18.4005 17.2114 19.9468 17.2161C23.1928 17.5981 23.8338 19.6231 23.7108 20.4761C23.6533 20.7787 23.5316 21.0655 23.3539 21.3172C23.1763 21.5689 22.9468 21.7796 22.6808 21.9351C22.4558 22.0781 22.3808 22.1261 22.4008 22.2281C22.4278 22.3781 22.5368 22.3711 22.7278 22.3441C23.2155 22.19 23.6452 21.8919 23.9604 21.4891C24.2756 21.0863 24.4615 20.5975 24.4938 20.0871C24.5938 18.0871 22.6868 15.8931 19.3108 15.9131C18.3 15.9148 17.2992 16.1142 16.3648 16.5001C16.2148 16.5621 16.0692 16.6288 15.9278 16.7001L15.9328 16.7031ZM11.1078 24.5421C10.0298 25.7151 8.52985 26.1581 7.88185 25.7831C7.18185 25.3831 7.45885 23.6481 8.78185 22.4071C9.56541 21.7011 10.4123 21.0688 11.3118 20.5181C11.4688 20.4181 11.7008 20.2861 11.9798 20.1181L12.0548 20.0771L12.2188 19.9771C12.4548 20.7682 12.4763 21.6078 12.2811 22.4099C12.0858 23.2121 11.6809 23.9479 11.1078 24.5421V24.5421Z" fill="#CD6799"/>
</g>
<defs>
<filter id="filter0_d_5_83" x="0" y="0" width="31.523" height="35.9725" filterUnits="userSpaceOnUse" color-interpolation-filters="sRGB">
<feFlood flood-opacity="0" result="BackgroundImageFix"/>
<feColorMatrix in="SourceAlpha" type="matrix" values="0 0 0 0 0 0 0 0 0 0 0 0 0 0 0 0 0 0 127 0" result="hardAlpha"/>
<feOffset dy="4"/>
<feGaussianBlur stdDeviation="2"/>
<feComposite in2="hardAlpha" operator="out"/>
<feColorMatrix type="matrix" values="0 0 0 0 0 0 0 0 0 0 0 0 0 0 0 0 0 0 0.25 0"/>
<feBlend mode="normal" in2="BackgroundImageFix" result="effect1_dropShadow_5_83"/>
<feBlend mode="normal" in="SourceGraphic" in2="effect1_dropShadow_5_83" result="shape"/>
</filter>
</defs>
</svg>
