<svg width="48" height="48" viewBox="0 0 48 48" fill="none" xmlns="http://www.w3.org/2000/svg">
<g filter="url(#filter0_d_5_113)">
<path d="M24 18C26.6522 18 29.1957 19.0536 31.0711 20.9289C32.9464 22.8043 34 25.3478 34 28V40H14V28C14 25.3478 15.0536 22.8043 16.9289 20.9289C18.8043 19.0536 21.3478 18 24 18ZM10.576 24.012C10.2577 25.0856 10.0697 26.1935 10.016 27.312L10 28V40H4V31C3.99961 29.2751 4.63606 27.6109 5.78727 26.3264C6.93848 25.042 8.5234 24.2278 10.238 24.04L10.578 24.012H10.576ZM37.424 24.012C39.2038 24.1205 40.8752 24.9039 42.0972 26.2025C43.3192 27.501 43.9997 29.2169 44 31V40H38V28C38 26.614 37.8 25.276 37.424 24.012ZM11 12C12.3261 12 13.5979 12.5268 14.5355 13.4645C15.4732 14.4021 16 15.6739 16 17C16 18.3261 15.4732 19.5979 14.5355 20.5355C13.5979 21.4732 12.3261 22 11 22C9.67392 22 8.40215 21.4732 7.46447 20.5355C6.52678 19.5979 6 18.3261 6 17C6 15.6739 6.52678 14.4021 7.46447 13.4645C8.40215 12.5268 9.67392 12 11 12V12ZM37 12C38.3261 12 39.5979 12.5268 40.5355 13.4645C41.4732 14.4021 42 15.6739 42 17C42 18.3261 41.4732 19.5979 40.5355 20.5355C39.5979 21.4732 38.3261 22 37 22C35.6739 22 34.4021 21.4732 33.4645 20.5355C32.5268 19.5979 32 18.3261 32 17C32 15.6739 32.5268 14.4021 33.4645 13.4645C34.4021 12.5268 35.6739 12 37 12V12ZM24 0C26.1217 0 28.1566 0.842855 29.6569 2.34315C31.1571 3.84344 32 5.87827 32 8C32 10.1217 31.1571 12.1566 29.6569 13.6569C28.1566 15.1571 26.1217 16 24 16C21.8783 16 19.8434 15.1571 18.3431 13.6569C16.8429 12.1566 16 10.1217 16 8C16 5.87827 16.8429 3.84344 18.3431 2.34315C19.8434 0.842855 21.8783 0 24 0V0Z" fill="white"/>
</g>
<defs>
<filter id="filter0_d_5_113" x="0" y="0" width="48" height="48" filterUnits="userSpaceOnUse" color-interpolation-filters="sRGB">
<feFlood flood-opacity="0" result="BackgroundImageFix"/>
<feColorMatrix in="SourceAlpha" type="matrix" values="0 0 0 0 0 0 0 0 0 0 0 0 0 0 0 0 0 0 127 0" result="hardAlpha"/>
<feOffset dy="4"/>
<feGaussianBlur stdDeviation="2"/>
<feComposite in2="hardAlpha" operator="out"/>
<feColorMatrix type="matrix" values="0 0 0 0 0 0 0 0 0 0 0 0 0 0 0 0 0 0 0.25 0"/>
<feBlend mode="normal" in2="BackgroundImageFix" result="effect1_dropShadow_5_113"/>
<feBlend mode="normal" in="SourceGraphic" in2="effect1_dropShadow_5_113" result="shape"/>
</filter>
</defs>
</svg>
