<svg width="38" height="38" viewBox="0 0 38 38" fill="none" xmlns="http://www.w3.org/2000/svg">
<g filter="url(#filter0_d_5_87)">
<path d="M4 0V30H34V0H4ZM16.7464 21.5348L13.9727 15.8186L11.2965 21.5211H8.68826L12.5266 14.2088L8.81547 6.81445H11.5226L14.1501 12.4352L16.7555 6.8008H19.2967L15.5825 13.9768L19.516 21.5348H16.7463H16.7464ZM28.6385 20.9345C27.4925 21.4802 26.2919 21.7258 25.146 21.7258C22.1856 21.7395 20.071 19.9113 20.071 16.2005C20.1673 12.3992 22.7002 10.278 26.251 10.5662V6.81445H28.6794V19.4475C28.6844 20.9541 28.8507 20.8092 28.6385 20.9345V20.9345ZM26.251 12.708V19.4611C23.8541 20.0831 22.5288 18.6244 22.5402 16.0914C22.5493 13.4937 24.256 12.1455 26.251 12.708Z" fill="#4F0133"/>
</g>
<defs>
<filter id="filter0_d_5_87" x="0" y="0" width="38" height="38" filterUnits="userSpaceOnUse" color-interpolation-filters="sRGB">
<feFlood flood-opacity="0" result="BackgroundImageFix"/>
<feColorMatrix in="SourceAlpha" type="matrix" values="0 0 0 0 0 0 0 0 0 0 0 0 0 0 0 0 0 0 127 0" result="hardAlpha"/>
<feOffset dy="4"/>
<feGaussianBlur stdDeviation="2"/>
<feComposite in2="hardAlpha" operator="out"/>
<feColorMatrix type="matrix" values="0 0 0 0 0 0 0 0 0 0 0 0 0 0 0 0 0 0 0.25 0"/>
<feBlend mode="normal" in2="BackgroundImageFix" result="effect1_dropShadow_5_87"/>
<feBlend mode="normal" in="SourceGraphic" in2="effect1_dropShadow_5_87" result="shape"/>
</filter>
</defs>
</svg>
